<svg id="Capa_1" fill="#e79034" enable-background="new 0 0 512 512" height="512" viewBox="0 0 512 512" width="512" xmlns="http://www.w3.org/2000/svg"><g><path d="m140.848 282.906c1.157 2.81 3.896 4.643 6.934 4.643s5.777-1.833 6.934-4.643c.179-.434 1.426-3.487 3.158-8.206l43.961 12.56c.678.194 1.371.289 2.06.289 1.612 0 3.201-.52 4.517-1.512 1.879-1.417 2.983-3.634 2.983-5.988v-8.327c0-7.188-3.219-13.885-8.832-18.375l-32.114-25.691c.542-4.065.865-8.025.865-11.734v-8.019c0-4.142-3.358-7.5-7.5-7.5s-7.5 3.358-7.5 7.5v8.019c0 12.141-4.113 28.044-8.097 40.611-.013-.001-.026 0-.039-.001-.136-.007-.272-.011-.408-.011-.118 0-.236.004-.353.01-.023.001-.046 0-.069.002-3.984-12.567-8.097-28.47-8.097-40.61v-192.391c0-4.705 3.828-8.532 8.532-8.532s8.532 3.828 8.532 8.532v152.307c0 4.142 3.358 7.5 7.5 7.5s7.5-3.358 7.5-7.5v-8.532h17.503c3.81 0 7.555.66 11.134 1.961l76.604 27.856v2.763c0 4.142 3.358 7.5 7.5 7.5s7.5-3.358 7.5-7.5v-18.449c0-11.019-5.869-21.384-15.317-27.052l-48.813-29.288v-29.421c0-8.556-6.96-15.516-15.516-15.516h-16.032c-8.556 0-15.516 6.96-15.516 15.516v1.183l-9.048-5.429v-67.899c0-12.975-10.556-23.532-23.532-23.532s-23.532 10.557-23.532 23.532v67.898l-9.048 5.429v-1.183c0-8.556-6.96-15.516-15.516-15.516h-16.033c-8.556 0-15.516 6.96-15.516 15.516v29.421l-48.812 29.288c-9.448 5.668-15.317 16.034-15.317 27.052v18.449c0 4.142 3.358 7.5 7.5 7.5s7.5-3.358 7.5-7.5v-2.763l76.604-27.856c3.579-1.301 7.324-1.961 11.134-1.961h17.503v48.615c0 3.708.323 7.668.865 11.734l-32.113 25.69c-5.613 4.49-8.832 11.188-8.832 18.375v8.327c0 2.354 1.104 4.57 2.983 5.988 1.316.993 2.905 1.512 4.517 1.512.689 0 1.382-.095 2.06-.289l43.961-12.56c1.732 4.72 2.979 7.773 3.158 8.208zm54.515-187.229c0-.285.231-.516.516-.516h16.032c.285 0 .516.231.516.516v20.421l-17.064-10.239zm73.159 71.572c4.876 2.925 7.928 8.237 8.025 13.912l-71.469-25.989c-5.227-1.901-10.698-2.865-16.261-2.865h-17.503v-43.383zm-75.329 97.81c1.594 1.275 2.656 3.042 3.041 5l-33.521-9.577c1.573-5.01 3.156-10.521 4.531-16.182zm-110.056-169.382c0-.285.231-.516.516-.516h16.032c.285 0 .516.231.516.516v10.183l-17.064 10.239zm23.61 56.63c-5.563 0-11.034.964-16.26 2.865l-71.469 25.988c.097-5.675 3.149-10.986 8.025-13.912l97.208-58.325v43.383h-17.504zm-7.416 117.752c.385-1.958 1.447-3.725 3.041-5l25.948-20.759c1.375 5.661 2.958 11.172 4.531 16.182z"/><path d="m316.121 128.258c-5.563 0-11.174.241-16.679.715-4.127.355-7.184 3.99-6.828 8.116.355 4.127 3.988 7.192 8.116 6.828 5.078-.438 10.256-.66 15.391-.66 97.527 0 176.871 79.344 176.871 176.871s-79.344 176.872-176.871 176.872-176.871-79.344-176.871-176.871c0-5.127.222-10.305.66-15.388.355-4.127-2.702-7.76-6.829-8.116-4.123-.354-7.76 2.702-8.116 6.829-.475 5.51-.715 11.12-.715 16.675 0 105.798 86.073 191.871 191.871 191.871s191.871-86.073 191.871-191.871-86.073-191.871-191.871-191.871z"/><path d="m163.814 312.629c-4.142 0-7.5 3.358-7.5 7.5s3.358 7.5 7.5 7.5h16.032c4.142 0 7.5-3.358 7.5-7.5s-3.358-7.5-7.5-7.5z"/><path d="m468.427 327.629c4.142 0 7.5-3.358 7.5-7.5s-3.358-7.5-7.5-7.5h-16.032c-4.142 0-7.5 3.358-7.5 7.5s3.358 7.5 7.5 7.5z"/><path d="m323.621 183.855v-16.032c0-4.142-3.358-7.5-7.5-7.5s-7.5 3.358-7.5 7.5v16.032c0 4.142 3.358 7.5 7.5 7.5s7.5-3.358 7.5-7.5z"/><path d="m308.621 456.403v16.032c0 4.142 3.358 7.5 7.5 7.5s7.5-3.358 7.5-7.5v-16.032c0-4.142-3.358-7.5-7.5-7.5s-7.5 3.358-7.5 7.5z"/><path d="m233.247 226.648c-2.929-2.929-7.678-2.929-10.606 0-2.929 2.929-2.929 7.678 0 10.606l72.411 72.411c-1.573 3.154-2.462 6.706-2.462 10.463 0 12.976 10.557 23.532 23.532 23.532 12.955 0 23.497-10.523 23.531-23.47l99.083-33.028c3.93-1.31 6.053-5.557 4.744-9.487-1.31-3.93-5.559-6.053-9.487-4.744l-99.093 33.031c-4.3-5.686-11.116-9.367-18.777-9.367-3.757 0-7.309.89-10.464 2.463zm91.406 93.481c0 4.705-3.828 8.532-8.532 8.532s-8.532-3.828-8.532-8.532 3.828-8.532 8.532-8.532 8.532 3.827 8.532 8.532z"/></g></svg>