<svg width="128" height="36" viewBox="0 0 128 36" fill="none" xmlns="http://www.w3.org/2000/svg">
<rect width="128" height="36" rx="6" fill="#00060C"/>
<path d="M26.5856 17.7538C26.597 16.8634 26.8335 15.9903 27.2731 15.2159C27.7126 14.4414 28.3409 13.7907 29.0995 13.3244C28.6176 12.6361 27.9819 12.0697 27.2428 11.6701C26.5037 11.2706 25.6816 11.0488 24.8418 11.0225C23.0504 10.8345 21.3137 12.0945 20.4008 12.0945C19.4703 12.0945 18.0648 11.0412 16.5513 11.0724C15.5723 11.104 14.6182 11.3887 13.7819 11.8987C12.9457 12.4087 12.2558 13.1266 11.7795 13.9824C9.71636 17.5545 11.2553 22.8043 13.2317 25.6917C14.2205 27.1056 15.3761 28.6849 16.8883 28.6289C18.368 28.5676 18.9206 27.6854 20.7068 27.6854C22.4763 27.6854 22.9948 28.6289 24.5376 28.5933C26.1254 28.5676 27.1258 27.1732 28.08 25.7459C28.7904 24.7384 29.3371 23.625 29.6998 22.4468C28.7773 22.0566 27.9901 21.4036 27.4363 20.569C26.8825 19.7345 26.5866 18.7554 26.5856 17.7538Z" fill="white"/>
<path d="M23.6714 9.12369C24.5372 8.08441 24.9637 6.74858 24.8604 5.3999C23.5377 5.53882 22.316 6.17096 21.4386 7.17037C21.0096 7.65861 20.681 8.22661 20.4716 8.84191C20.2623 9.45721 20.1762 10.1077 20.2184 10.7563C20.88 10.7631 21.5345 10.6197 22.1326 10.3369C22.7307 10.0541 23.2569 9.6393 23.6714 9.12369Z" fill="white"/>
<path d="M44.8873 24.4259H40.6272L39.6042 27.4467H37.7998L41.8349 16.2705H43.7096L47.7446 27.4467H45.9095L44.8873 24.4259ZM41.0685 23.032H44.4453L42.7806 18.1294H42.734L41.0685 23.032Z" fill="white"/>
<path d="M56.459 23.3733C56.459 25.9054 55.1037 27.5323 53.0585 27.5323C52.5404 27.5594 52.0251 27.44 51.5717 27.1879C51.1183 26.9358 50.7451 26.5611 50.4947 26.1067H50.456V30.1426H48.7834V19.2987H50.4024V20.6539H50.4332C50.695 20.2017 51.0746 19.829 51.5315 19.5753C51.9883 19.3216 52.5054 19.1966 53.0277 19.2134C55.0957 19.2134 56.459 20.8482 56.459 23.3733ZM54.7398 23.3733C54.7398 21.7236 53.8873 20.639 52.5865 20.639C51.3086 20.639 50.449 21.7464 50.449 23.3733C50.449 25.0151 51.3086 26.1146 52.5865 26.1146C53.8873 26.1146 54.7398 25.0379 54.7398 23.3733Z" fill="white"/>
<path d="M65.4275 23.3733C65.4275 25.9054 64.0722 27.5323 62.027 27.5323C61.5089 27.5594 60.9936 27.44 60.5402 27.1879C60.0868 26.9358 59.7136 26.5611 59.4632 26.1067H59.4245V30.1426H57.752V19.2987H59.3709V20.6539H59.4017C59.6635 20.2017 60.0431 19.829 60.4999 19.5753C60.9568 19.3216 61.4739 19.1966 61.9962 19.2134C64.0643 19.2134 65.4275 20.8482 65.4275 23.3733ZM63.7083 23.3733C63.7083 21.7236 62.8558 20.639 61.555 20.639C60.2771 20.639 59.4175 21.7464 59.4175 23.3733C59.4175 25.0151 60.2771 26.1146 61.555 26.1146C62.8558 26.1146 63.7083 25.0379 63.7083 23.3733Z" fill="white"/>
<path d="M71.3545 24.3326C71.4784 25.4409 72.5551 26.1686 74.0263 26.1686C75.4361 26.1686 76.4504 25.4408 76.4504 24.4415C76.4504 23.574 75.8386 23.0546 74.3902 22.6986L72.9418 22.3497C70.8895 21.854 69.9368 20.8942 69.9368 19.3368C69.9368 17.4085 71.6173 16.084 74.0035 16.084C76.3651 16.084 77.9841 17.4085 78.0386 19.3368H76.3502C76.2491 18.2215 75.3271 17.5482 73.9797 17.5482C72.6324 17.5482 71.7104 18.2294 71.7104 19.2208C71.7104 20.0109 72.2993 20.4759 73.7398 20.8318L74.9711 21.1342C77.2642 21.6764 78.217 22.5976 78.217 24.2323C78.217 26.3232 76.5514 27.6328 73.9024 27.6328C71.4239 27.6328 69.7504 26.354 69.6423 24.3325L71.3545 24.3326Z" fill="white"/>
<path d="M81.8267 17.3701V19.2984H83.3762V20.623H81.8267V25.115C81.8267 25.8129 82.1369 26.1381 82.8181 26.1381C83.002 26.1349 83.1857 26.122 83.3683 26.0994V27.416C83.062 27.4732 82.7507 27.4991 82.4393 27.4933C80.7896 27.4933 80.1462 26.8737 80.1462 25.2934V20.623H78.9614V19.2984H80.1462V17.3701H81.8267Z" fill="white"/>
<path d="M84.2737 23.373C84.2737 20.8093 85.7836 19.1982 88.1382 19.1982C90.5007 19.1982 92.0037 20.8092 92.0037 23.373C92.0037 25.9439 90.5086 27.5478 88.1382 27.5478C85.7687 27.5478 84.2737 25.9438 84.2737 23.373ZM90.2995 23.373C90.2995 21.6144 89.4935 20.5764 88.1382 20.5764C86.783 20.5764 85.9779 21.6223 85.9779 23.373C85.9779 25.1388 86.783 26.1688 88.1382 26.1688C89.4935 26.1688 90.2994 25.1388 90.2994 23.373H90.2995Z" fill="white"/>
<path d="M93.3828 19.2986H94.978V20.6855H95.0167C95.1247 20.2523 95.3784 19.8695 95.7353 19.6014C96.0923 19.3333 96.5306 19.1963 96.9767 19.2133C97.1694 19.2127 97.3617 19.2336 97.5497 19.2757V20.8402C97.3064 20.7658 97.0526 20.7317 96.7982 20.7391C96.5553 20.7293 96.313 20.7721 96.0882 20.8647C95.8633 20.9573 95.6611 21.0975 95.4956 21.2756C95.33 21.4537 95.2049 21.6655 95.1289 21.8965C95.053 22.1275 95.0279 22.3722 95.0554 22.6138V27.4469H93.3828L93.3828 19.2986Z" fill="white"/>
<path d="M105.261 25.0535C105.036 26.5327 103.596 27.5478 101.753 27.5478C99.3822 27.5478 97.9109 25.9597 97.9109 23.4117C97.9109 20.8559 99.3901 19.1982 101.682 19.1982C103.937 19.1982 105.354 20.7469 105.354 23.2175V23.7905H99.5993V23.8916C99.5727 24.1915 99.6103 24.4936 99.7094 24.7778C99.8086 25.0621 99.9671 25.322 100.174 25.5403C100.382 25.7586 100.633 25.9303 100.912 26.0439C101.191 26.1576 101.49 26.2107 101.791 26.1996C102.187 26.2366 102.583 26.1451 102.922 25.9386C103.261 25.7321 103.525 25.4217 103.673 25.0535L105.261 25.0535ZM99.6072 22.6216H103.681C103.696 22.3519 103.655 22.0821 103.561 21.829C103.467 21.5759 103.321 21.3451 103.133 21.1509C102.946 20.9567 102.72 20.8034 102.47 20.7006C102.221 20.5978 101.952 20.5477 101.682 20.5535C101.41 20.5519 101.14 20.6042 100.888 20.7075C100.636 20.8108 100.407 20.9629 100.214 21.1552C100.021 21.3475 99.868 21.576 99.7638 21.8277C99.6597 22.0794 99.6065 22.3492 99.6072 22.6216V22.6216Z" fill="white"/>
<path d="M42.1421 13H41.1577V7.50684H39.2153V6.65869H44.0801V7.50684H42.1421V13Z" fill="white"/>
<path d="M45.2358 12.3276C45.5698 12.3276 45.8496 12.2266 46.0752 12.0244C46.3037 11.8193 46.418 11.5674 46.418 11.2686V10.9038L45.2798 10.9741C44.9956 10.9946 44.7759 11.0649 44.6206 11.1851C44.4683 11.3022 44.3921 11.4604 44.3921 11.6597C44.3921 11.8618 44.4683 12.0244 44.6206 12.1475C44.7759 12.2676 44.981 12.3276 45.2358 12.3276ZM44.9722 13.0791C44.5181 13.0791 44.1475 12.9502 43.8604 12.6924C43.5762 12.4346 43.4341 12.0991 43.4341 11.686C43.4341 11.2817 43.5835 10.9609 43.8823 10.7236C44.1812 10.4834 44.6045 10.3486 45.1523 10.3193L46.418 10.2446V9.88867C46.418 9.63086 46.3359 9.43018 46.1719 9.28662C46.0078 9.14014 45.7808 9.06689 45.4907 9.06689C45.2212 9.06689 45.0015 9.12695 44.8315 9.24707C44.6646 9.36719 44.5591 9.53271 44.5151 9.74365H43.6187C43.645 9.31592 43.8296 8.96729 44.1724 8.69775C44.5151 8.42822 44.9663 8.29346 45.5259 8.29346C46.0854 8.29346 46.5308 8.43115 46.8618 8.70654C47.1958 8.98193 47.3628 9.35107 47.3628 9.81396V13H46.4531V12.2397H46.4312C46.2993 12.4946 46.0986 12.6982 45.8291 12.8506C45.5625 13.0029 45.2769 13.0791 44.9722 13.0791ZM44.9019 6.79053V6.28516C45.0806 6.20898 45.2856 6.1709 45.5171 6.1709C45.7896 6.1709 46.0063 6.24561 46.1675 6.39502C46.3315 6.5415 46.4136 6.73926 46.4136 6.98828C46.4136 7.18164 46.3447 7.36035 46.207 7.52441C46.0723 7.68848 45.8892 7.81592 45.6577 7.90674L45.3545 7.50684C45.627 7.40723 45.7632 7.24902 45.7632 7.03223C45.7632 6.93555 45.7236 6.85498 45.6445 6.79053C45.5654 6.72314 45.4673 6.68945 45.3501 6.68945C45.2183 6.68945 45.0688 6.72314 44.9019 6.79053Z" fill="white"/>
<path d="M48.3164 13V8.37695H49.2656V13H48.3164ZM49.1821 7.54199C49.0737 7.64746 48.9434 7.7002 48.791 7.7002C48.6387 7.7002 48.5083 7.64746 48.3999 7.54199C48.2944 7.43652 48.2417 7.30908 48.2417 7.15967C48.2417 7.00732 48.2944 6.87842 48.3999 6.77295C48.5083 6.66748 48.6387 6.61475 48.791 6.61475C48.9463 6.61475 49.0767 6.66748 49.1821 6.77295C49.2905 6.87842 49.3447 7.00732 49.3447 7.15967C49.3447 7.30908 49.2905 7.43652 49.1821 7.54199Z" fill="white"/>
<path d="M56.0112 8.37695L54.3545 13H53.335L51.6694 8.37695H52.6802L53.8403 12.0728H53.8579L55.0181 8.37695H56.0112Z" fill="white"/>
<path d="M59.1621 9.39209C58.9541 9.16943 58.686 9.05811 58.3579 9.05811C58.0298 9.05811 57.7573 9.1709 57.5405 9.39648C57.3237 9.61914 57.2036 9.90771 57.1802 10.2622H59.4917C59.48 9.90479 59.3701 9.61475 59.1621 9.39209ZM59.4873 11.6421H60.3882C60.3208 12.0669 60.104 12.4141 59.7378 12.6836C59.3716 12.9531 58.9248 13.0879 58.3975 13.0879C57.7207 13.0879 57.1875 12.8755 56.7979 12.4507C56.4111 12.0229 56.2178 11.4429 56.2178 10.7104C56.2178 9.98389 56.4111 9.39941 56.7979 8.95703C57.1875 8.51465 57.7075 8.29346 58.3579 8.29346C58.9966 8.29346 59.5034 8.50293 59.8784 8.92188C60.2534 9.33789 60.4409 9.89746 60.4409 10.6006V10.9258H57.1758V10.9829C57.1758 11.3872 57.2886 11.7109 57.5142 11.9541C57.7397 12.1973 58.0415 12.3188 58.4194 12.3188C58.686 12.3188 58.9146 12.2573 59.105 12.1343C59.2954 12.0112 59.4229 11.8472 59.4873 11.6421ZM58.7271 6.46094L59.9092 7.73535H59.0918L58.3711 6.95312H58.3447L57.624 7.73535H56.8066L57.9888 6.46094H58.7271ZM60.1597 6.3335H59.4214L58.4019 5.0459H59.25L60.1597 6.3335Z" fill="white"/>
<path d="M63.2842 7.28271H64.2378V8.37695H65.1167V9.12842H64.2378V11.6772C64.2378 11.8765 64.2832 12.0229 64.374 12.1167C64.4648 12.2104 64.6069 12.2573 64.8003 12.2573C64.9409 12.2573 65.0449 12.25 65.1123 12.2354V12.9868C64.9951 13.0161 64.8193 13.0308 64.585 13.0308C64.1191 13.0308 63.7852 12.9355 63.583 12.7451C63.3838 12.5518 63.2842 12.231 63.2842 11.7827V9.12842H62.6118V8.37695H63.2842V7.28271Z" fill="white"/>
<path d="M65.8989 13V8.37695H66.8042V9.16357H66.8262C66.9023 8.89404 67.0386 8.68311 67.2349 8.53076C67.4312 8.37842 67.6655 8.30225 67.938 8.30225C68.0288 8.30225 68.1372 8.31396 68.2632 8.3374V9.2207C68.1782 9.18555 68.0361 9.16797 67.8369 9.16797C67.5322 9.16797 67.2905 9.26318 67.1118 9.45361C66.936 9.64404 66.8481 9.90332 66.8481 10.2314V13H65.8989Z" fill="white"/>
<path d="M71.3877 9.39209C71.1797 9.16943 70.9116 9.05811 70.5835 9.05811C70.2554 9.05811 69.9829 9.1709 69.7661 9.39648C69.5493 9.61914 69.4292 9.90771 69.4058 10.2622H71.7173C71.7056 9.90479 71.5957 9.61475 71.3877 9.39209ZM71.7129 11.6421H72.6138C72.5464 12.0669 72.3296 12.4141 71.9634 12.6836C71.5972 12.9531 71.1504 13.0879 70.623 13.0879C69.9463 13.0879 69.4131 12.8755 69.0234 12.4507C68.6367 12.0229 68.4434 11.4429 68.4434 10.7104C68.4434 9.98389 68.6367 9.39941 69.0234 8.95703C69.4131 8.51465 69.9331 8.29346 70.5835 8.29346C71.2222 8.29346 71.729 8.50293 72.104 8.92188C72.479 9.33789 72.6665 9.89746 72.6665 10.6006V10.9258H69.4014V10.9829C69.4014 11.3872 69.5142 11.7109 69.7397 11.9541C69.9653 12.1973 70.2671 12.3188 70.645 12.3188C70.9116 12.3188 71.1401 12.2573 71.3306 12.1343C71.521 12.0112 71.6484 11.8472 71.7129 11.6421ZM70.9482 6.38623L72.1304 7.73535H71.3174L70.5967 6.90039H70.5703L69.8496 7.73535H69.0366L70.2188 6.38623H70.9482Z" fill="white"/>
<path d="M73.4048 13V8.37695H74.3101V9.15039H74.332C74.4609 8.88086 74.6484 8.67139 74.8945 8.52197C75.1406 8.37256 75.438 8.29785 75.7866 8.29785C76.2935 8.29785 76.6875 8.4502 76.9688 8.75488C77.25 9.05664 77.3906 9.47412 77.3906 10.0073V13H76.437V10.1919C76.437 9.84033 76.3535 9.57373 76.1865 9.39209C76.0225 9.20752 75.7778 9.11523 75.4526 9.11523C75.1187 9.11523 74.8521 9.22363 74.6528 9.44043C74.4536 9.65723 74.354 9.9458 74.354 10.3062V13H73.4048Z" fill="white"/>
</svg>
