<svg width="128" height="36" viewBox="0 0 128 36" fill="none" xmlns="http://www.w3.org/2000/svg">
<rect width="128" height="36" rx="6" fill="#00060C"/>
<path d="M39.1421 12.3039H38.1577V6.8558H36.2153V6.01461H41.0801V6.8558H39.1421V12.3039Z" fill="white"/>
<path d="M42.2358 11.6371C42.5698 11.6371 42.8496 11.5368 43.0752 11.3364C43.3037 11.133 43.418 10.8831 43.418 10.5867V10.2249L42.2798 10.2947C41.9956 10.315 41.7759 10.3847 41.6206 10.5039C41.4683 10.6201 41.3921 10.777 41.3921 10.9746C41.3921 11.1751 41.4683 11.3364 41.6206 11.4584C41.7759 11.5775 41.981 11.6371 42.2358 11.6371ZM41.9722 12.3824C41.5181 12.3824 41.1475 12.2545 40.8604 11.9988C40.5762 11.7431 40.4341 11.4104 40.4341 11.0007C40.4341 10.5998 40.5835 10.2816 40.8823 10.0462C41.1812 9.80797 41.6045 9.67431 42.1523 9.64525L43.418 9.57116V9.21812C43.418 8.96242 43.3359 8.76338 43.1719 8.621C43.0078 8.47572 42.7808 8.40308 42.4907 8.40308C42.2212 8.40308 42.0015 8.46264 41.8315 8.58178C41.6646 8.70091 41.5591 8.86508 41.5151 9.07429H40.6187C40.645 8.65006 40.8296 8.30428 41.1724 8.03696C41.5151 7.76964 41.9663 7.63598 42.5259 7.63598C43.0854 7.63598 43.5308 7.77254 43.8618 8.04568C44.1958 8.31881 44.3628 8.68493 44.3628 9.14402V12.3039H43.4531V11.5499H43.4312C43.2993 11.8027 43.0986 12.0047 42.8291 12.1558C42.5625 12.3068 42.2769 12.3824 41.9722 12.3824ZM41.9019 6.14537V5.64414C42.0806 5.56859 42.2856 5.53082 42.5171 5.53082C42.7896 5.53082 43.0063 5.60491 43.1675 5.7531C43.3315 5.89839 43.4136 6.09452 43.4136 6.3415C43.4136 6.53328 43.3447 6.71052 43.207 6.87324C43.0723 7.03596 42.8892 7.16235 42.6577 7.25243L42.3545 6.8558C42.627 6.75701 42.7632 6.60011 42.7632 6.38509C42.7632 6.2892 42.7236 6.20929 42.6445 6.14537C42.5654 6.07854 42.4673 6.04512 42.3501 6.04512C42.2183 6.04512 42.0688 6.07854 41.9019 6.14537Z" fill="white"/>
<path d="M45.3164 12.3039V7.71879H46.2656V12.3039H45.3164ZM46.1821 6.89067C46.0737 6.99528 45.9434 7.04758 45.791 7.04758C45.6387 7.04758 45.5083 6.99528 45.3999 6.89067C45.2944 6.78607 45.2417 6.65967 45.2417 6.51148C45.2417 6.36039 45.2944 6.23254 45.3999 6.12793C45.5083 6.02333 45.6387 5.97103 45.791 5.97103C45.9463 5.97103 46.0767 6.02333 46.1821 6.12793C46.2905 6.23254 46.3447 6.36039 46.3447 6.51148C46.3447 6.65967 46.2905 6.78607 46.1821 6.89067Z" fill="white"/>
<path d="M53.0112 7.71879L51.3545 12.3039H50.335L48.6694 7.71879H49.6802L50.8403 11.3843H50.8579L52.0181 7.71879H53.0112Z" fill="white"/>
<path d="M56.1621 8.72561C55.9541 8.50477 55.686 8.39436 55.3579 8.39436C55.0298 8.39436 54.7573 8.50623 54.5405 8.72996C54.3237 8.9508 54.2036 9.237 54.1802 9.58859H56.4917C56.48 9.2341 56.3701 8.94644 56.1621 8.72561ZM56.4873 10.9572H57.3882C57.3208 11.3785 57.104 11.7228 56.7378 11.9901C56.3716 12.2575 55.9248 12.3911 55.3975 12.3911C54.7207 12.3911 54.1875 12.1805 53.7979 11.7591C53.4111 11.3349 53.2178 10.7596 53.2178 10.0332C53.2178 9.31255 53.4111 8.73287 53.7979 8.29411C54.1875 7.85536 54.7075 7.63598 55.3579 7.63598C55.9966 7.63598 56.5034 7.84373 56.8784 8.25925C57.2534 8.67185 57.4409 9.22683 57.4409 9.9242V10.2467H54.1758V10.3034C54.1758 10.7044 54.2886 11.0254 54.5142 11.2666C54.7397 11.5078 55.0415 11.6284 55.4194 11.6284C55.686 11.6284 55.9146 11.5674 56.105 11.4453C56.2954 11.3233 56.4229 11.1606 56.4873 10.9572ZM55.7271 5.81848L56.9092 7.08245H56.0918L55.3711 6.30663H55.3447L54.624 7.08245H53.8066L54.9888 5.81848H55.7271ZM57.1597 5.69208H56.4214L55.4019 4.41504H56.25L57.1597 5.69208Z" fill="white"/>
<path d="M60.2842 6.63352H61.2378V7.71879H62.1167V8.4641H61.2378V10.992C61.2378 11.1896 61.2832 11.3349 61.374 11.4279C61.4648 11.5209 61.6069 11.5674 61.8003 11.5674C61.9409 11.5674 62.0449 11.5601 62.1123 11.5456V12.2909C61.9951 12.3199 61.8193 12.3345 61.585 12.3345C61.1191 12.3345 60.7852 12.24 60.583 12.0511C60.3838 11.8594 60.2842 11.5412 60.2842 11.0966V8.4641H59.6118V7.71879H60.2842V6.63352Z" fill="white"/>
<path d="M62.8989 12.3039V7.71879H63.8042V8.49896H63.8262C63.9023 8.23164 64.0386 8.02243 64.2349 7.87134C64.4312 7.72024 64.6655 7.6447 64.938 7.6447C65.0288 7.6447 65.1372 7.65632 65.2632 7.67956V8.55562C65.1782 8.52076 65.0361 8.50332 64.8369 8.50332C64.5322 8.50332 64.2905 8.59776 64.1118 8.78662C63.936 8.97549 63.8481 9.23265 63.8481 9.55808V12.3039H62.8989Z" fill="white"/>
<path d="M68.3877 8.72561C68.1797 8.50477 67.9116 8.39436 67.5835 8.39436C67.2554 8.39436 66.9829 8.50623 66.7661 8.72996C66.5493 8.9508 66.4292 9.237 66.4058 9.58859H68.7173C68.7056 9.2341 68.5957 8.94644 68.3877 8.72561ZM68.7129 10.9572H69.6138C69.5464 11.3785 69.3296 11.7228 68.9634 11.9901C68.5972 12.2575 68.1504 12.3911 67.623 12.3911C66.9463 12.3911 66.4131 12.1805 66.0234 11.7591C65.6367 11.3349 65.4434 10.7596 65.4434 10.0332C65.4434 9.31255 65.6367 8.73287 66.0234 8.29411C66.4131 7.85536 66.9331 7.63598 67.5835 7.63598C68.2222 7.63598 68.729 7.84373 69.104 8.25925C69.479 8.67185 69.6665 9.22683 69.6665 9.9242V10.2467H66.4014V10.3034C66.4014 10.7044 66.5142 11.0254 66.7397 11.2666C66.9653 11.5078 67.2671 11.6284 67.645 11.6284C67.9116 11.6284 68.1401 11.5674 68.3306 11.4453C68.521 11.3233 68.6484 11.1606 68.7129 10.9572ZM67.9482 5.74438L69.1304 7.08245H68.3174L67.5967 6.25433H67.5703L66.8496 7.08245H66.0366L67.2188 5.74438H67.9482Z" fill="white"/>
<path d="M70.4048 12.3039V7.71879H71.3101V8.48589H71.332C71.4609 8.21857 71.6484 8.01081 71.8945 7.86262C72.1406 7.71443 72.438 7.64034 72.7866 7.64034C73.2935 7.64034 73.6875 7.79143 73.9688 8.09362C74.25 8.39291 74.3906 8.80696 74.3906 9.3358V12.3039H73.437V9.51885C73.437 9.17017 73.3535 8.90576 73.1865 8.72561C73.0225 8.54255 72.7778 8.45102 72.4526 8.45102C72.1187 8.45102 71.8521 8.55853 71.6528 8.77355C71.4536 8.98857 71.354 9.27478 71.354 9.63218V12.3039H70.4048Z" fill="white"/>
<path fill-rule="evenodd" clip-rule="evenodd" d="M61.1577 19.58C59.0423 19.58 57.3277 21.1892 57.3277 23.4089C57.3277 25.6084 59.0535 27.2378 61.1577 27.2378C63.2731 27.2378 64.9878 25.6174 64.9878 23.4089C64.9878 21.1892 63.2731 19.58 61.1577 19.58ZM61.1577 25.7206C60.0004 25.7206 59.0043 24.76 59.0043 23.3999C59.0043 22.0196 60.0027 21.0792 61.1577 21.0792C62.315 21.0792 63.3112 22.0196 63.3112 23.3999C63.3134 24.769 62.315 25.7206 61.1577 25.7206ZM52.8014 19.58C50.686 19.58 48.9713 21.1892 48.9713 23.4089C48.9713 25.6084 50.6972 27.2378 52.8014 27.2378C54.9168 27.2378 56.6315 25.6174 56.6315 23.4089C56.6315 21.1892 54.9146 19.58 52.8014 19.58ZM52.8014 25.7206C51.6441 25.7206 50.648 24.76 50.648 23.3999C50.648 22.0196 51.6464 21.0792 52.8014 21.0792C53.9587 21.0792 54.9548 22.0196 54.9548 23.3999C54.9548 24.769 53.9587 25.7206 52.8014 25.7206ZM42.858 20.7493V22.3697H46.7373C46.6187 23.2787 46.3187 23.9498 45.8598 24.4099C45.2913 24.98 44.4138 25.5994 42.867 25.5994C40.483 25.5994 38.6183 23.6692 38.6183 21.279C38.6183 18.8887 40.483 16.9585 42.867 16.9585C44.1541 16.9585 45.092 17.468 45.7882 18.1189L46.9343 16.9697C45.9673 16.0406 44.6802 15.3291 42.8759 15.3291C39.6055 15.3291 36.8611 17.9999 36.8611 21.27C36.8611 24.549 39.6032 27.2109 42.8759 27.2109C44.6421 27.2109 45.9673 26.6318 47.0149 25.5411C48.0827 24.4705 48.4207 22.96 48.4207 21.7413C48.4207 21.362 48.3916 21.0209 48.3311 20.7313H42.8558C42.858 20.7291 42.858 20.7493 42.858 20.7493ZM83.5293 22.0106C83.2091 21.151 82.2421 19.571 80.2588 19.571C78.2934 19.571 76.6593 21.1219 76.6593 23.3999C76.6593 25.55 78.2755 27.2288 80.4491 27.2288C82.1951 27.2288 83.2114 26.1583 83.63 25.5298L82.3339 24.659C81.9041 25.2987 81.3064 25.7184 80.458 25.7184C79.6007 25.7184 79.0008 25.3278 78.6023 24.558L83.7083 22.4371C83.7083 22.4393 83.5293 22.0106 83.5293 22.0106ZM78.3225 23.2899C78.2822 21.8109 79.4686 21.059 80.317 21.059C80.9863 21.059 81.5437 21.3889 81.734 21.8692L78.3225 23.2899ZM74.1746 26.9999H75.8512V15.751H74.1746V26.9999ZM71.4212 20.4306H71.3608C70.9825 19.9795 70.2639 19.571 69.3461 19.571C67.4412 19.571 65.6862 21.252 65.6862 23.4111C65.6862 25.5613 67.4322 27.2221 69.3461 27.2221C70.2527 27.2221 70.9825 26.8114 71.3608 26.3513H71.4212V26.9012C71.4212 28.3623 70.6422 29.15 69.3864 29.15C68.359 29.15 67.721 28.4094 67.4613 27.7899L66.0041 28.4004C66.4227 29.4104 67.5397 30.6605 69.3842 30.6605C71.3496 30.6605 73.015 29.5002 73.015 26.67V19.7999H71.4302V20.4306C71.4324 20.4306 71.4212 20.4306 71.4212 20.4306ZM69.4961 25.7206C68.3388 25.7206 67.3718 24.751 67.3718 23.4111C67.3718 22.06 68.3388 21.0815 69.4961 21.0815C70.6422 21.0815 71.5309 22.0712 71.5309 23.4111C71.5421 24.751 70.6445 25.7206 69.4961 25.7206ZM91.3797 15.751H87.3705V26.9999H89.0471V22.7401H91.3819C93.2376 22.7401 95.062 21.3912 95.062 19.25C95.062 17.1089 93.2443 15.751 91.3797 15.751ZM91.4289 21.169H89.0449V17.3087H91.4289C92.6847 17.3087 93.3943 18.3478 93.3943 19.2388C93.3943 20.1209 92.6757 21.169 91.4289 21.169ZM101.782 19.5598C100.564 19.5598 99.3084 20.1007 98.7891 21.279L100.275 21.8984C100.596 21.279 101.182 21.068 101.802 21.068C102.671 21.068 103.548 21.5887 103.568 22.5179V22.6368C103.268 22.4663 102.61 22.2059 101.822 22.2059C100.217 22.2059 98.5898 23.0857 98.5898 24.7353C98.5898 26.2458 99.9061 27.2154 101.372 27.2154C102.498 27.2154 103.118 26.7059 103.506 26.1156H103.566V26.9865H105.182V22.6772C105.182 20.6707 103.696 19.5598 101.782 19.5598ZM101.572 25.7206C101.023 25.7206 100.255 25.4513 100.255 24.76C100.255 23.8892 101.213 23.5593 102.03 23.5593C102.769 23.5593 103.118 23.7186 103.557 23.9386C103.436 24.9485 102.586 25.7116 101.572 25.7206ZM111.078 19.7999L109.153 24.6792H109.093L107.098 19.7999H105.294L108.287 26.6206L106.581 30.4114H108.327L112.932 19.7999H111.078ZM95.9865 26.9999H97.6631V15.751H95.9865V26.9999Z" fill="white"/>
<path fill-rule="evenodd" clip-rule="evenodd" d="M9.36594 6.78033C9.10628 7.06087 8.9563 7.48955 8.9563 8.05065V27.9516C8.9563 28.5127 9.10628 28.9414 9.3749 29.2107L9.44429 29.2713L20.5651 18.1212V17.8721L9.43534 6.71973L9.36594 6.78033Z" fill="url(#paint0_linear)"/>
<path fill-rule="evenodd" clip-rule="evenodd" d="M24.2651 21.8491L20.5559 18.1302V17.8698L24.2651 14.1509L24.3457 14.2003L28.7332 16.7005C29.989 17.4097 29.989 18.5813 28.7332 19.2995L24.3457 21.7998L24.2651 21.8491Z" fill="url(#paint1_linear)"/>
<path fill-rule="evenodd" clip-rule="evenodd" d="M24.3457 21.7998L20.5559 18L9.36572 29.2197C9.77537 29.6596 10.4626 29.709 11.2304 29.2803L24.3457 21.7998Z" fill="url(#paint2_linear)"/>
<path fill-rule="evenodd" clip-rule="evenodd" d="M24.3457 14.2002L11.2304 6.73087C10.4626 6.29097 9.77313 6.35157 9.36572 6.79147L20.5559 18L24.3457 14.2002Z" fill="url(#paint3_linear)"/>
<path opacity="0.2" fill-rule="evenodd" clip-rule="evenodd" d="M24.2653 21.7188L11.2394 29.1387C10.5119 29.5584 9.86275 29.5292 9.44415 29.1477L9.37476 29.2173L9.44415 29.2779C9.86275 29.6572 10.5119 29.6886 11.2394 29.2689L24.3548 21.7995L24.2653 21.7188Z" fill="black"/>
<path opacity="0.12" fill-rule="evenodd" clip-rule="evenodd" d="M28.7334 19.1693L24.2542 21.719L24.3347 21.7998L28.7222 19.2995C29.3512 18.9404 29.6601 18.4691 29.6601 18C29.6221 18.4309 29.3019 18.8394 28.7334 19.1693Z" fill="black"/>
<path opacity="0.25" fill-rule="evenodd" clip-rule="evenodd" d="M11.2306 6.86106L28.7334 16.8306C29.302 17.1516 29.6221 17.5713 29.6713 18C29.6713 17.5309 29.3624 17.0596 28.7334 16.7005L11.2306 6.73089C9.97481 6.01044 8.9563 6.61194 8.9563 8.05059V8.18076C8.9563 6.73987 9.97481 6.14959 11.2306 6.86106Z" fill="white"/>
<defs>
<linearGradient id="paint0_linear" x1="19.5676" y1="7.83594" x2="1.74775" y2="12.5716" gradientUnits="userSpaceOnUse">
<stop stop-color="#00A0FF"/>
<stop offset="0.00657" stop-color="#00A1FF"/>
<stop offset="0.2601" stop-color="#00BEFF"/>
<stop offset="0.5122" stop-color="#00D2FF"/>
<stop offset="0.7604" stop-color="#00DFFF"/>
<stop offset="1" stop-color="#00E3FF"/>
</linearGradient>
<linearGradient id="paint1_linear" x1="30.3708" y1="18" x2="8.65075" y2="18" gradientUnits="userSpaceOnUse">
<stop stop-color="#FFE000"/>
<stop offset="0.4087" stop-color="#FFBD00"/>
<stop offset="0.7754" stop-color="#FFA500"/>
<stop offset="1" stop-color="#FF9C00"/>
</linearGradient>
<linearGradient id="paint2_linear" x1="22.285" y1="20.0676" x2="7.92859" y2="44.1671" gradientUnits="userSpaceOnUse">
<stop stop-color="#FF3A44"/>
<stop offset="1" stop-color="#C31162"/>
</linearGradient>
<linearGradient id="paint3_linear" x1="6.5479" y1="0.160863" x2="12.9529" y2="10.9241" gradientUnits="userSpaceOnUse">
<stop stop-color="#32A071"/>
<stop offset="0.0685" stop-color="#2DA771"/>
<stop offset="0.4762" stop-color="#15CF74"/>
<stop offset="0.8009" stop-color="#06E775"/>
<stop offset="1" stop-color="#00F076"/>
</linearGradient>
</defs>
</svg>
